#!OML:ASF X:\für Bonn\!DataBase\2005_08_12_Daniel\c3d\Daniel.ASF
:FULLY-SPECIFIED
:DEGREES
93
root 7.63875 12.8321 -4.07282 -1264 142.358 172.789
lowerback 80.9017 -0.594033 -1.96707
upperback 11.2923 -1.70625 -6.16113
thorax -7.76544 0.60146 -5.98638
lowerneck 5.73408 3.19089 -2.13774
upperneck 9.01383 4.07023 1.40421
head 1.77443 1.96514 0.784666
rclavicle 3.18055e-015 1.19271e-013
rhumerus -308.924 27.469 281.849
rradius 25.3947
rwrist 26.5831
rhand -22.3914 734.212
rfingers 7.12502
rthumb 4.03079 704.27
lclavicle 3.18055e-015 1.19271e-013
lhumerus -308.944 -2.92884 -319.62
lradius 35.5689
lwrist -10.1509
lhand -19.8575 -725.87
lfingers 7.12502
lthumb 6.47737 -335.989
rfemur -81.784 -32.1761 52.4261
rtibia 78.2307
rfoot 358.821 11.5158
rtoes 21.7956
lfemur -51.9746 5.60641 -17.389
ltibia 110.073
lfoot -38.4445 -11.8901
ltoes 1.06948
94
root 7.76968 12.6981 -4.01706 -1264.13 142.655 172.588
lowerback 81.3977 -0.749146 -1.84579
upperback 11.1651 -1.7964 -6.12354
thorax -7.85831 0.559595 -5.96697
lowerneck 5.5953 3.19803 -2.22243
upperneck 9.12637 4.07321 1.49088
head 1.83102 1.96449 0.830632
rclavicle -9.54166e-015 -1.18873e-013
rhumerus -308.077 27.8028 282.116
rradius 25.4127
rwrist 26.8551
rhand -23.0934 734.333
rfingers 7.12502
rthumb 3.35287 704.38
lclavicle -9.54166e-015 -1.18873e-013
lhumerus -308.432 -2.60007 -320.834
lradius 34.9984
lwrist -10.0075
lhand -20.1501 -726.235
lfingers 7.12502
lthumb 6.1949 -336.345
rfemur -82.562 -31.8728 52.7904
rtibia 79.7512
rfoot 356.969 9.89389
rtoes 22.9753
lfemur -52.288 6.21416 -17.3365
ltibia 111.612
lfoot -37.9682 -12.5734
ltoes 1.07529
95
root 7.9022 12.5621 -3.95939 -1264.32 142.921 172.306
lowerback 81.9371 -0.941379 -1.66774
upperback 11.015 -1.87707 -6.07364
thorax -7.97093 0.520896 -5.95978
lowerneck 5.40747 3.19166 -2.29891
upperneck 9.25786 4.0598 1.58524
head 1.90263 1.95638 0.87924
rclavicle 3.97569e-014 -5.6753e-014
rhumerus -307.209 28.189 282.552
rradius 25.5045
rwrist 26.9659
rhand -23.7805 734.418
rfingers 7.12502
rthumb 2.68932 704.456
lclavicle 3.97569e-014 -5.6753e-014
lhumerus -307.915 -2.28463 -322.022
lradius 34.3665
lwrist -9.85058
lhand -20.5238 -726.475
lfingers 7.12502
lthumb 5.83413 -336.575
rfemur -83.2705 -31.5501 53.1159
rtibia 81.4053
rfoot 354.884 8.43055
rtoes 23.6622
lfemur -52.5787 6.8821 -17.1872
ltibia 113.162
lfoot -37.5585 -13.2696
ltoes 1.01646
96
root 8.03569 12.426 -3.90114 -1264.55 143.186 171.981
lowerback 82.5196 -1.11922 -1.49613
upperback 10.8404 -1.94387 -5.99604
thorax -8.10074 0.483686 -5.92383
lowerneck 5.21511 3.17977 -2.34364
upperneck 9.38239 4.04367 1.6228
head 1.97481 1.94699 0.904808
rclavicle 2.06736e-014 -3.44891e-014
rhumerus -306.373 28.5663 282.92
rradius 25.5959
rwrist 27.1362
rhand -24.4009 734.516
rfingers 7.12502
rthumb 2.09021 704.546
lclavicle 2.06736e-014 -3.44891e-014
lhumerus -307.394 -1.92489 -323.059
lradius 33.6299
lwrist -9.68087
lhand -20.93 -726.694
lfingers 7.12502
lthumb 5.44195 -336.784
rfemur -83.9169 -31.1993 53.383
rtibia 83.1329
rfoot 352.804 7.14291
rtoes 24.133
lfemur -52.8217 7.59933 -16.977
ltibia 114.691
lfoot -37.2163 -14.0291
ltoes 1.02579
97
root 8.17026 12.2908 -3.84315 -1264.78 143.416 171.581
lowerback 83.1324 -1.33004 -1.27344
upperback 10.617 -2.00249 -5.90395
thorax -8.28232 0.44663 -5.8942
lowerneck 5.03728 3.15616 -2.34016
upperneck 9.52297 4.01349 1.66273
head 2.05116 1.93232 0.923086
rclavicle 1.11319e-014 1.23246e-013
rhumerus -305.734 28.8447 283.008
rradius 25.7066
rwrist 27.5501
rhand -24.9468 734.636
rfingers 7.12502
rthumb 1.56295 704.662
lclavicle 1.11319e-014 1.23246e-013
lhumerus -306.86 -1.37446 -323.526
lradius 32.7113
lwrist -10.0299
lhand -21.3029 -726.952
lfingers 7.12502
lthumb 5.08184 -337.033
rfemur -84.5987 -30.8633 53.7002
rtibia 84.889
rfoot 350.719 5.92171
rtoes 23.906
lfemur -53.1025 8.37517 -16.6938
ltibia 116.212
lfoot -36.8338 -14.7757
ltoes 1.03957
98
root 8.30486 12.1598 -3.78439 -1265.07 143.658 171.1
lowerback 83.762 -1.50556 -1.04813
upperback 10.3829 -2.01663 -5.78057
thorax -8.46491 0.422485 -5.84591
lowerneck 4.84637 3.12346 -2.24925
upperneck 9.66624 3.97882 1.62469
head 2.13406 1.91681 0.902366
rclavicle -1.59028e-014 3.07122e-014
rhumerus -305.048 29.159 283.212
rradius 25.8353
rwrist 27.8788
rhand -25.4461 734.74
rfingers 7.12502
rthumb 1.08072 704.763
lclavicle -1.59028e-014 3.07122e-014
lhumerus -306.277 -0.638462 -323.5
lradius 31.6322
lwrist -10.7488
lhand -21.7567 -727.255
lfingers 7.12502
lthumb 4.64372 -337.326
rfemur -85.2143 -30.5395 53.9794
rtibia 86.6298
rfoot 348.689 4.76654
rtoes 22.9396
lfemur -53.315 9.25278 -16.2882
ltibia 117.675
lfoot -36.4036 -15.6095
ltoes 1.06788
99
root 8.4408 12.0313 -3.72703 -1265.4 143.9 170.526
lowerback 84.4318 -1.7244 -0.758641
upperback 10.1151 -2.02124 -5.65597
thorax -8.68031 0.400522 -5.82445
lowerneck 4.65525 3.08939 -2.18384
upperneck 9.81035 3.93932 1.61926
head 2.21664 1.89883 0.896151
rclavicle -2.22639e-014 1.52567e-014
rhumerus -304.411 29.473 283.447
rradius 26.0077
rwrist 28.203
rhand -25.8668 734.852
rfingers 7.12502
rthumb 0.67443 704.874
lclavicle -2.22639e-014 1.52567e-014
lhumerus -305.676 0.217023 -323.174
lradius 30.4769
lwrist -11.6517
lhand -22.3124 -727.531
lfingers 7.12502
lthumb 4.10712 -337.591
rfemur -85.8186 -30.2904 54.2619
rtibia 88.3608
rfoot 346.875 3.86793
rtoes 21.7474
lfemur -53.5232 10.2136 -15.7664
ltibia 119.121
lfoot -35.9082 -16.4833
ltoes 1.1919
